<svg width="310.12164306640625px" height="121.24555969238281px" xmlns="http://www.w3.org/2000/svg" viewBox="94.93917846679688 14.377220153808594 310.12164306640625 121.24555969238281" style="background:rgb(29,181,147)" preserveAspectRatio="xMidYMid"><defs><linearGradient id="editing-shadow-gradient1" x1="0" x2="0" y1="0" y2="1"><stop offset="0" stop-color="#000000" stop-opacity="0"></stop><stop offset="0.2" stop-color="#000000" stop-opacity="0"></stop><stop offset="1" stop-color="#000000" stop-opacity="1"></stop></linearGradient><linearGradient id="editing-shadow-gradient2" x1="-0.254709580222772" x2="1.2547095802227721" y1="-0.15605902899050716" y2="1.1560590289905073"><stop offset="0" stop-color="#ffffff"></stop><stop offset="1" stop-color="#fec918"></stop></linearGradient><filter id="editing-shadow" x="-100%" y="-100%" width="300%" height="300%"><feGaussianBlur stdDeviation="2"></feGaussianBlur><feComposite operator="in" in2="SourceGraphic"></feComposite><feGaussianBlur stdDeviation="1"></feGaussianBlur></filter></defs><g transform="translate(250,75)"><g transform="translate(-20.4, -1.2)"><g transform="skewX(45)"><g filter="url(#editing-shadow)"><g transform="translate(-68.54499632120132, 22.43000030517578)"><path d="M0.96-1.60L0.58-9.47L8.58-15.62L13.57-19.71L13.57-19.71Q16.13-21.89 17.98-23.81L17.98-23.81L17.98-23.81Q21.38-27.20 21.38-30.46L21.38-30.46L21.38-30.46Q21.38-32.38 20.13-33.41L20.13-33.41L20.13-33.41Q18.88-34.43 17.06-34.43L17.06-34.43L17.06-34.43Q15.23-34.43 13.92-34.02L13.92-34.02L13.92-34.02Q12.61-33.60 11.46-32.90L11.46-32.90L11.46-32.90Q9.02-31.30 7.87-28.86L7.87-28.86L7.87-28.86Q6.27-28.93 5.22-30.27L5.22-30.27L5.22-30.27Q4.16-31.62 4.16-33.57L4.16-33.57L4.16-33.57Q4.16-35.52 5.38-37.34L5.38-37.34L5.38-37.34Q6.59-39.17 8.77-40.58L8.77-40.58L8.77-40.58Q13.50-43.52 20-43.52L20-43.52L20-43.52Q26.50-43.52 30.14-40.70L30.14-40.70L30.14-40.70Q33.79-37.89 33.79-33.09L33.79-33.09L33.79-33.09Q33.79-29.50 32.03-26.24L32.03-26.24L32.03-26.24Q30.27-22.98 25.60-19.65L25.60-19.65L18.69-14.78L14.53-12.03L9.22-8.77L11.46-8.51L11.46-8.51Q12.99-8.32 15.68-8.32L15.68-8.32L15.68-8.32Q18.37-8.32 20.61-8.61L20.61-8.61L20.61-8.61Q22.85-8.90 24.77-9.47L24.77-9.47L24.77-9.47Q28.99-10.62 30.34-12.22L30.34-12.22L30.34-12.22Q31.04-11.71 31.58-10.40L31.58-10.40L31.58-10.40Q32.13-9.09 32.13-7.49L32.13-7.49L32.13-7.49Q32.13-2.69 28.48-0.70L28.48-0.70L28.48-0.70Q24.83 1.28 17.34 1.28L17.34 1.28L17.34 1.28Q13.44 1.28 8.26 0.16L8.26 0.16L8.26 0.16Q3.07-0.96 0.96-1.60L0.96-1.60ZM57.73-23.10L57.73-23.10L57.73-23.10Q66.18-20.93 66.18-12.67L66.18-12.67L66.18-12.67Q66.18-6.72 61.12-2.82L61.12-2.82L61.12-2.82Q55.74 1.28 46.91 1.28L46.91 1.28L46.91 1.28Q41.66 1.28 38.53-0.74L38.53-0.74L38.53-0.74Q35.39-2.75 35.39-6.08L35.39-6.08L35.39-6.08Q35.39-9.41 37.89-11.46L37.89-11.46L37.89-11.46Q39.17-9.09 41.44-8L41.44-8L41.44-8Q43.71-6.91 46.62-6.91L46.62-6.91L46.62-6.91Q49.54-6.91 51.39-8.45L51.39-8.45L51.39-8.45Q53.25-9.98 53.25-12.99L53.25-12.99L53.25-12.99Q53.25-18.69 45.44-18.69L45.44-18.69L46.53-24.45L46.53-24.45Q55.87-25.98 55.87-30.59L55.87-30.59L55.87-30.59Q55.87-32.45 54.59-33.47L54.59-33.47L54.59-33.47Q53.31-34.50 50.88-34.50L50.88-34.50L50.88-34.50Q46.59-34.50 42.82-30.53L42.82-30.53L42.82-30.53Q41.60-30.85 41.09-31.71L41.09-31.71L41.09-31.71Q40.58-32.58 40.58-34.37L40.58-34.37L40.58-34.37Q40.58-36.16 41.86-37.86L41.86-37.86L41.86-37.86Q43.14-39.55 45.38-40.83L45.38-40.83L45.38-40.83Q50.18-43.52 56.64-43.52L56.64-43.52L56.64-43.52Q61.57-43.52 64.70-40.96L64.70-40.96L64.70-40.96Q67.97-38.34 67.97-34.43L67.97-34.43L67.97-34.43Q67.97-30.91 65.15-27.84L65.15-27.84L65.15-27.84Q62.34-24.77 57.73-23.10ZM72.06-15.23L72.06-15.23L72.06-15.23Q72.06-28.16 78.14-35.84L78.14-35.84L78.14-35.84Q84.22-43.52 94.66-43.52L94.66-43.52L94.66-43.52Q100.22-43.52 103.42-39.36L103.42-39.36L103.42-39.36Q106.62-35.20 106.62-28.26L106.62-28.26L106.62-28.26Q106.62-21.31 105.06-15.90L105.06-15.90L105.06-15.90Q103.49-10.50 100.67-6.66L100.67-6.66L100.67-6.66Q94.78 1.34 84.99 1.34L84.99 1.34L84.99 1.34Q78.40 1.34 75.23-2.72L75.23-2.72L75.23-2.72Q72.06-6.78 72.06-15.23ZM83.39-10.88L83.39-10.88L83.39-10.88Q83.39-4.42 85.50-4.42L85.50-4.42L85.50-4.42Q87.42-4.42 89.18-6.66L89.18-6.66L89.18-6.66Q90.94-8.90 92.35-12.67L92.35-12.67L92.35-12.67Q95.36-20.93 95.36-31.17L95.36-31.17L95.36-31.17Q95.36-34.62 94.82-36.19L94.82-36.19L94.82-36.19Q94.27-37.76 92.83-37.76L92.83-37.76L92.83-37.76Q91.39-37.76 89.70-35.26L89.70-35.26L89.70-35.26Q88-32.77 86.59-28.86L86.59-28.86L86.59-28.86Q83.39-19.97 83.39-10.88ZM118.40-12.16L109.25-12.16L109.25-12.16Q108.99-12.93 108.99-14.50L108.99-14.50L108.99-14.50Q108.99-16.06 110.30-17.38L110.30-17.38L110.30-17.38Q111.62-18.69 113.66-18.69L113.66-18.69L119.62-18.69L120.90-25.54L120.90-25.54Q121.34-27.52 122.72-28.67L122.72-28.67L122.72-28.67Q124.10-29.82 125.82-29.82L125.82-29.82L125.82-29.82Q127.55-29.82 128.70-29.38L128.70-29.38L126.66-18.69L136.19-18.69L136.38-17.66L136.38-17.66Q136.51-17.22 136.51-16.77L136.51-16.77L136.51-16.77Q136.51-14.59 135.04-13.38L135.04-13.38L135.04-13.38Q133.57-12.16 131.14-12.16L131.14-12.16L125.38-12.16L123.84-4.29L123.84-4.29Q123.01-0.38 118.91-0.38L118.91-0.38L118.91-0.38Q117.44-0.38 116.10-0.83L116.10-0.83L118.40-12.16Z" fill="url(#editing-shadow-gradient1)"></path></g></g></g></g><g><g transform="translate(-68.54499632120132, 22.43000030517578)"><path d="M0.96-1.60L0.58-9.47L8.58-15.62L13.57-19.71L13.57-19.71Q16.13-21.89 17.98-23.81L17.98-23.81L17.98-23.81Q21.38-27.20 21.38-30.46L21.38-30.46L21.38-30.46Q21.38-32.38 20.13-33.41L20.13-33.41L20.13-33.41Q18.88-34.43 17.06-34.43L17.06-34.43L17.06-34.43Q15.23-34.43 13.92-34.02L13.92-34.02L13.92-34.02Q12.61-33.60 11.46-32.90L11.46-32.90L11.46-32.90Q9.02-31.30 7.87-28.86L7.87-28.86L7.87-28.86Q6.27-28.93 5.22-30.27L5.22-30.27L5.22-30.27Q4.16-31.62 4.16-33.57L4.16-33.57L4.16-33.57Q4.16-35.52 5.38-37.34L5.38-37.34L5.38-37.34Q6.59-39.17 8.77-40.58L8.77-40.58L8.77-40.58Q13.50-43.52 20-43.52L20-43.52L20-43.52Q26.50-43.52 30.14-40.70L30.14-40.70L30.14-40.70Q33.79-37.89 33.79-33.09L33.79-33.09L33.79-33.09Q33.79-29.50 32.03-26.24L32.03-26.24L32.03-26.24Q30.27-22.98 25.60-19.65L25.60-19.65L18.69-14.78L14.53-12.03L9.22-8.77L11.46-8.51L11.46-8.51Q12.99-8.32 15.68-8.32L15.68-8.32L15.68-8.32Q18.37-8.32 20.61-8.61L20.61-8.61L20.61-8.61Q22.85-8.90 24.77-9.47L24.77-9.47L24.77-9.47Q28.99-10.62 30.34-12.22L30.34-12.22L30.34-12.22Q31.04-11.71 31.58-10.40L31.58-10.40L31.58-10.40Q32.13-9.09 32.13-7.49L32.13-7.49L32.13-7.49Q32.13-2.69 28.48-0.70L28.48-0.70L28.48-0.70Q24.83 1.28 17.34 1.28L17.34 1.28L17.34 1.28Q13.44 1.28 8.26 0.16L8.26 0.16L8.26 0.16Q3.07-0.96 0.96-1.60L0.96-1.60ZM57.73-23.10L57.73-23.10L57.73-23.10Q66.18-20.93 66.18-12.67L66.18-12.67L66.18-12.67Q66.18-6.72 61.12-2.82L61.12-2.82L61.12-2.82Q55.74 1.28 46.91 1.28L46.91 1.28L46.91 1.28Q41.66 1.28 38.53-0.74L38.53-0.74L38.53-0.74Q35.39-2.75 35.39-6.08L35.39-6.08L35.39-6.08Q35.39-9.41 37.89-11.46L37.89-11.46L37.89-11.46Q39.17-9.09 41.44-8L41.44-8L41.44-8Q43.71-6.91 46.62-6.91L46.62-6.91L46.62-6.91Q49.54-6.91 51.39-8.45L51.39-8.45L51.39-8.45Q53.25-9.98 53.25-12.99L53.25-12.99L53.25-12.99Q53.25-18.69 45.44-18.69L45.44-18.69L46.53-24.45L46.53-24.45Q55.87-25.98 55.87-30.59L55.87-30.59L55.87-30.59Q55.87-32.45 54.59-33.47L54.59-33.47L54.59-33.47Q53.31-34.50 50.88-34.50L50.88-34.50L50.88-34.50Q46.59-34.50 42.82-30.53L42.82-30.53L42.82-30.53Q41.60-30.85 41.09-31.71L41.09-31.71L41.09-31.71Q40.58-32.58 40.58-34.37L40.58-34.37L40.58-34.37Q40.58-36.16 41.86-37.86L41.86-37.86L41.86-37.86Q43.14-39.55 45.38-40.83L45.38-40.83L45.38-40.83Q50.18-43.52 56.64-43.52L56.64-43.52L56.64-43.52Q61.57-43.52 64.70-40.96L64.70-40.96L64.70-40.96Q67.97-38.34 67.97-34.43L67.97-34.43L67.97-34.43Q67.97-30.91 65.15-27.84L65.15-27.84L65.15-27.84Q62.34-24.77 57.73-23.10ZM72.06-15.23L72.06-15.23L72.06-15.23Q72.06-28.16 78.14-35.84L78.14-35.84L78.14-35.84Q84.22-43.52 94.66-43.52L94.66-43.52L94.66-43.52Q100.22-43.52 103.42-39.36L103.42-39.36L103.42-39.36Q106.62-35.20 106.62-28.26L106.62-28.26L106.62-28.26Q106.62-21.31 105.06-15.90L105.06-15.90L105.06-15.90Q103.49-10.50 100.67-6.66L100.67-6.66L100.67-6.66Q94.78 1.34 84.99 1.34L84.99 1.34L84.99 1.34Q78.40 1.34 75.23-2.72L75.23-2.72L75.23-2.72Q72.06-6.78 72.06-15.23ZM83.39-10.88L83.39-10.88L83.39-10.88Q83.39-4.42 85.50-4.42L85.50-4.42L85.50-4.42Q87.42-4.42 89.18-6.66L89.18-6.66L89.18-6.66Q90.94-8.90 92.35-12.67L92.35-12.67L92.35-12.67Q95.36-20.93 95.36-31.17L95.36-31.17L95.36-31.17Q95.36-34.62 94.82-36.19L94.82-36.19L94.82-36.19Q94.27-37.76 92.83-37.76L92.83-37.76L92.83-37.76Q91.39-37.76 89.70-35.26L89.70-35.26L89.70-35.26Q88-32.77 86.59-28.86L86.59-28.86L86.59-28.86Q83.39-19.97 83.39-10.88ZM118.40-12.16L109.25-12.16L109.25-12.16Q108.99-12.93 108.99-14.50L108.99-14.50L108.99-14.50Q108.99-16.06 110.30-17.38L110.30-17.38L110.30-17.38Q111.62-18.69 113.66-18.69L113.66-18.69L119.62-18.69L120.90-25.54L120.90-25.54Q121.34-27.52 122.72-28.67L122.72-28.67L122.72-28.67Q124.10-29.82 125.82-29.82L125.82-29.82L125.82-29.82Q127.55-29.82 128.70-29.38L128.70-29.38L126.66-18.69L136.19-18.69L136.38-17.66L136.38-17.66Q136.51-17.22 136.51-16.77L136.51-16.77L136.51-16.77Q136.51-14.59 135.04-13.38L135.04-13.38L135.04-13.38Q133.57-12.16 131.14-12.16L131.14-12.16L125.38-12.16L123.84-4.29L123.84-4.29Q123.01-0.38 118.91-0.38L118.91-0.38L118.91-0.38Q117.44-0.38 116.10-0.83L116.10-0.83L118.40-12.16Z" fill="url(#editing-shadow-gradient2)"></path></g></g></g><style>text {
  font-size: 64px;
  font-family: Arial Black;
  dominant-baseline: central;
  text-anchor: middle;
}</style></svg>